<svg xmlns="http://www.w3.org/2000/svg" viewBox="0 0 100 100">
  <defs>
    <linearGradient id="grad" x1="0%" y1="0%" x2="100%" y2="100%">
      <stop offset="0%" style="stop-color:#3B82F6;stop-opacity:1" />
      <stop offset="100%" style="stop-color:#1D4ED8;stop-opacity:1" />
    </linearGradient>
  </defs>
  <rect width="100" height="100" rx="20" fill="url(#grad)"/>
  <!-- Hotel building -->
  <rect x="25" y="40" width="50" height="45" fill="white" opacity="0.9"/>
  <rect x="30" y="50" width="8" height="8" fill="#3B82F6"/>
  <rect x="42" y="50" width="8" height="8" fill="#3B82F6"/>
  <rect x="54" y="50" width="8" height="8" fill="#3B82F6"/>
  <rect x="62" y="50" width="8" height="8" fill="#3B82F6"/>
  <rect x="30" y="62" width="8" height="8" fill="#3B82F6"/>
  <rect x="42" y="62" width="8" height="8" fill="#3B82F6"/>
  <rect x="54" y="62" width="8" height="8" fill="#3B82F6"/>
  <rect x="62" y="62" width="8" height="8" fill="#3B82F6"/>
  <!-- Door -->
  <rect x="42" y="70" width="16" height="15" fill="#1D4ED8"/>
  <circle cx="54" cy="77" r="1.5" fill="white"/>
  <!-- Roof -->
  <polygon points="20,40 50,20 80,40" fill="white" opacity="0.9"/>
  <!-- Star decoration -->
  <path d="M50,15 L51.5,19 L56,19.5 L52.5,22.5 L53.5,27 L50,24.5 L46.5,27 L47.5,22.5 L44,19.5 L48.5,19 Z" fill="#FBBF24"/>
</svg>

